<svg width="35" height="33" viewBox="0 0 35 33" fill="none" xmlns="http://www.w3.org/2000/svg">
<path d="M17.1117 32.4243C26.5622 32.4243 34.2234 25.1659 34.2234 16.2122C34.2234 7.25843 26.5622 0 17.1117 0C7.66117 0 0 7.25843 0 16.2122C0 25.1659 7.66117 32.4243 17.1117 32.4243Z" fill="#1662AC"/>
<path d="M20.1263 23.2788H14.0965C12.9183 23.2776 11.7887 22.8335 10.9555 22.0442C10.1224 21.2548 9.65383 20.1845 9.65259 19.0682V13.3554C9.65392 12.2391 10.1225 11.1689 10.9557 10.3796C11.7888 9.59027 12.9183 9.14628 14.0965 9.14502H20.1263C21.3046 9.1462 22.4342 9.59016 23.2674 10.3795C24.1006 11.1688 24.5692 12.239 24.5706 13.3554V19.0682C24.5693 20.1846 24.1007 21.2549 23.2675 22.0443C22.4343 22.8337 21.3046 23.2777 20.1263 23.2788ZM14.0965 10.5666C13.3161 10.5675 12.568 10.8616 12.0162 11.3844C11.4644 11.9072 11.154 12.616 11.1531 13.3554V19.0682C11.154 19.8075 11.4644 20.5163 12.0162 21.0391C12.568 21.5618 13.3162 21.8559 14.0965 21.8567H20.1263C20.9066 21.8559 21.6548 21.5618 22.2065 21.0391C22.7583 20.5163 23.0686 19.8075 23.0695 19.0682V13.3554C23.0686 12.616 22.7583 11.9072 22.2065 11.3844C21.6548 10.8616 20.9067 10.5675 20.1263 10.5666H14.0965ZM17.1106 19.8669C16.3476 19.8667 15.6018 19.6521 14.9675 19.2503C14.3332 18.8485 13.8389 18.2775 13.5471 17.6095C13.2553 16.9416 13.1791 16.2067 13.3281 15.4977C13.4772 14.7887 13.8447 14.1375 14.3844 13.6264C14.924 13.1154 15.6115 12.7674 16.3599 12.6265C17.1083 12.4856 17.8839 12.5581 18.5888 12.8348C19.2937 13.1115 19.8962 13.5801 20.32 14.1812C20.7438 14.7823 20.97 15.489 20.97 16.2119C20.969 17.1811 20.5621 18.1104 19.8387 18.7957C19.1154 19.481 18.1345 19.8663 17.1116 19.8672L17.1106 19.8669ZM17.1106 13.9771C16.6443 13.9771 16.1885 14.1081 15.8008 14.3535C15.4131 14.5989 15.1109 14.9478 14.9325 15.3559C14.7541 15.7641 14.7074 16.2132 14.7983 16.6465C14.8893 17.0798 15.1138 17.4778 15.4436 17.7902C15.7733 18.1026 16.1934 18.3153 16.6507 18.4015C17.108 18.4877 17.5821 18.4434 18.0129 18.2744C18.4436 18.1053 18.8119 17.819 19.0709 17.4517C19.33 17.0844 19.4682 16.6525 19.4682 16.2107C19.4672 15.6189 19.2186 15.0515 18.7769 14.6331C18.3351 14.2146 17.7363 13.9791 17.1116 13.9783L17.1106 13.9771ZM20.9762 13.4586C20.7934 13.4585 20.6146 13.4071 20.4626 13.3108C20.3106 13.2145 20.1921 13.0776 20.1222 12.9175C20.0522 12.7574 20.034 12.5813 20.0697 12.4113C20.1055 12.2414 20.1936 12.0854 20.323 11.9629C20.4523 11.8404 20.6171 11.757 20.7965 11.7233C20.9758 11.6895 21.1618 11.7069 21.3307 11.7733C21.4996 11.8397 21.644 11.952 21.7455 12.0961C21.8471 12.2402 21.9013 12.4096 21.9012 12.5828C21.9012 12.8152 21.8039 13.038 21.6307 13.2024C21.4574 13.3668 21.2224 13.4594 20.9772 13.4598L20.9762 13.4586Z" fill="white"/>
</svg>
