<svg width="35" height="33" viewBox="0 0 35 33" fill="none" xmlns="http://www.w3.org/2000/svg">
<path d="M17.1117 32.4243C26.5622 32.4243 34.2234 25.1659 34.2234 16.2122C34.2234 7.25843 26.5622 0 17.1117 0C7.66117 0 0 7.25843 0 16.2122C0 25.1659 7.66117 32.4243 17.1117 32.4243Z" fill="#1662AC"/>
<path d="M20.8583 17.3082L20.8524 17.3575C19.4057 16.6365 19.2543 16.5404 19.0675 16.8207C18.9379 17.0148 18.5603 17.4549 18.4465 17.5852C18.3313 17.7135 18.2169 17.7233 18.0215 17.6345C17.8241 17.5358 17.1906 17.3286 16.4406 16.6575C15.8564 16.1345 15.4643 15.4931 15.3485 15.2957C15.1557 14.9628 15.559 14.9155 15.9261 14.2207C15.9919 14.0826 15.9583 13.974 15.9096 13.876C15.8603 13.7773 15.4675 12.8102 15.3031 12.4247C15.1452 12.0405 14.9827 12.0892 14.861 12.0892C14.482 12.0563 14.2051 12.0616 13.961 12.3155C12.8992 13.4826 13.1669 14.6865 14.0755 15.9668C15.861 18.3036 16.8123 18.7338 18.5517 19.3312C19.0215 19.4805 19.4497 19.4595 19.7885 19.4108C20.1662 19.3509 20.951 18.9365 21.1148 18.4727C21.2826 18.0088 21.2826 17.624 21.2333 17.5352C21.1846 17.4464 21.0556 17.397 20.8583 17.3082Z" fill="white"/>
<path d="M22.8404 10.1648C17.7819 5.27477 9.41031 8.82144 9.40702 15.72C9.40702 17.099 9.7682 18.4437 10.4564 19.6312L9.34058 23.6851L13.5083 22.5982C18.7089 25.4074 25.1272 21.6772 25.1299 15.724C25.1299 13.6345 24.3141 11.6681 22.8305 10.1905L22.8404 10.1648ZM23.8154 15.7023C23.8115 20.7239 18.299 23.8601 13.9392 21.2969L13.7024 21.1562L11.2353 21.7976L11.8965 19.3996L11.7392 19.1529C9.02611 14.8339 12.1432 9.1892 17.2826 9.1892C19.0286 9.1892 20.6674 9.87011 21.9016 11.1036C23.1351 12.3267 23.8154 13.9655 23.8154 15.7023Z" fill="white"/>
</svg>
